<?xml version="1.0" standalone="no"?>
<!DOCTYPE svg PUBLIC "-//W3C//DTD SVG 20010904//EN"
 "http://www.w3.org/TR/2001/REC-SVG-20010904/DTD/svg10.dtd">
<svg version="1.0" xmlns="http://www.w3.org/2000/svg"
 width="244.000000pt" height="244.000000pt" viewBox="0 0 244.000000 244.000000"
 preserveAspectRatio="xMidYMid meet">
<metadata>
Created by potrace 1.11, written by Peter Selinger 2001-2013
</metadata>
<g transform="translate(0.000000,244.000000) scale(0.100000,-0.100000)"
fill="#000000" stroke="none">
<path d="M1169 2361 c-35 -36 -39 -86 -9 -124 20 -25 21 -44 27 -391 l6 -364
36 -5 c20 -2 38 -3 39 -1 2 1 6 168 9 371 5 336 7 370 23 388 28 31 34 69 16
104 -31 59 -99 70 -147 22z"/>
<path d="M890 2233 c-8 -2 -86 -38 -172 -79 -106 -51 -182 -80 -235 -91 -73
-16 -83 -15 -156 2 -91 21 -106 15 -77 -33 19 -30 104 -82 136 -82 7 0 14 -6
17 -14 7 -18 64 -27 108 -17 33 8 36 6 47 -21 10 -28 13 -29 63 -26 46 3 56 0
80 -24 30 -31 39 -32 87 -19 27 8 36 7 53 -10 23 -23 46 -24 99 -3 40 16 42
16 65 -6 20 -19 31 -22 68 -17 24 3 55 11 70 16 27 10 27 11 27 111 0 94 -1
100 -21 100 -38 0 -58 20 -100 100 -52 100 -99 134 -159 113z"/>
<path d="M1482 2214 c-20 -16 -48 -56 -68 -98 -37 -76 -55 -96 -90 -96 -25 0
-34 -35 -34 -137 l0 -62 52 -16 c69 -20 90 -19 122 6 25 20 28 20 67 5 52 -21
68 -20 94 4 18 17 26 18 58 9 46 -12 73 -5 93 26 13 19 20 22 49 15 41 -9 79
7 83 37 3 19 7 20 44 11 46 -10 94 -3 105 16 5 7 27 18 51 25 50 14 122 75
122 102 0 24 -27 25 -95 3 -97 -30 -206 -2 -438 112 -71 35 -141 64 -156 64
-14 0 -41 -12 -59 -26z"/>
<path d="M908 1690 c-178 -22 -225 -84 -134 -175 84 -84 181 -118 392 -139 78
-8 157 -21 177 -30 78 -32 108 -92 71 -144 -8 -12 -42 -36 -75 -52 -32 -17
-59 -34 -59 -38 0 -5 16 -16 36 -25 35 -17 37 -17 80 8 166 97 191 211 65 295
-59 40 -177 68 -331 79 -156 12 -255 38 -303 81 -27 24 -30 32 -21 47 17 28
111 30 170 3 53 -23 91 -25 129 -8 32 15 32 30 -3 69 -32 36 -79 43 -194 29z"/>
<path d="M1390 1685 c-14 -7 -33 -27 -42 -43 -16 -26 -16 -31 -3 -42 29 -24
94 -24 140 -1 34 17 58 21 107 19 63 -3 63 -3 63 -33 0 -25 -7 -34 -44 -54
-52 -29 -177 -61 -241 -62 -41 0 -43 -1 -20 -11 14 -6 49 -21 78 -34 l53 -23
57 21 c70 26 117 55 159 98 40 41 49 75 28 107 -23 34 -68 51 -172 63 -113 13
-133 12 -163 -5z"/>
<path d="M957 1348 c-50 -68 -41 -123 32 -191 53 -49 106 -79 220 -122 81 -31
136 -72 145 -110 8 -31 -17 -88 -50 -114 -27 -21 -32 -66 -9 -75 22 -8 89 56
114 108 26 53 26 86 1 135 -27 53 -80 89 -201 136 -118 46 -179 93 -179 139 0
32 57 96 87 96 39 1 -12 17 -74 24 -61 7 -62 7 -86 -26z"/>
<path d="M1197 1353 c-4 -5 -3 -57 0 -116 5 -85 9 -106 22 -110 9 -3 24 -8 34
-12 16 -7 17 3 17 114 0 90 -3 121 -12 121 -7 0 -23 3 -34 6 -12 3 -24 2 -27
-3z"/>
<path d="M1088 1023 c-48 -52 -61 -108 -38 -167 15 -40 80 -105 152 -153 38
-25 77 -56 88 -70 23 -30 25 -70 5 -97 -17 -23 -20 -76 -4 -76 17 0 68 62 80
97 21 66 -15 119 -137 201 -129 86 -156 163 -79 224 32 25 32 42 0 56 -35 16
-38 16 -67 -15z"/>
<path d="M1200 911 l0 -110 30 -21 30 -21 0 39 c0 21 3 73 6 115 l7 75 -31 16
c-17 9 -33 16 -37 16 -3 0 -5 -49 -5 -109z"/>
<path d="M1133 688 c-73 -80 -51 -168 62 -249 66 -47 79 -77 77 -171 -1 -43 0
-78 3 -78 16 0 45 91 45 140 0 67 -19 98 -102 165 -68 54 -80 84 -49 125 24
33 27 60 9 78 -17 17 -21 15 -45 -10z"/>
<path d="M1200 607 c0 -64 3 -76 23 -95 13 -12 26 -22 30 -22 4 0 7 33 7 73 0
64 -3 76 -23 95 -13 12 -26 22 -30 22 -4 0 -7 -33 -7 -73z"/>
<path d="M1155 393 c-32 -66 -5 -167 66 -248 42 -48 55 -44 23 6 -40 64 -54
115 -54 200 0 44 -4 79 -9 79 -5 0 -17 -16 -26 -37z"/>
<path d="M1210 329 c0 -56 6 -85 23 -119 l22 -45 3 70 c4 89 -3 128 -28 150
-20 18 -20 17 -20 -56z"/>
<path d="M1210 96 c0 -47 18 -85 31 -65 15 24 10 65 -11 84 -20 18 -20 17 -20
-19z"/>
</g>
</svg>
